<?xml version='1.0' encoding='UTF-8'?>
<!-- Generator: Adobe Illustrator 19.2.1, SVG Export Plug-In . SVG Version: 6.00 Build 0)  --><svg xmlns="http://www.w3.org/2000/svg" xmlns:xlink="http://www.w3.org/1999/xlink" version="1.1" id="layer" x="px" y="0px" viewBox="2.20 212.64 636.11 217.51" style="enable-background:new 0 0 652 652;" xml:space="preserve">
<style type="text/css">
	.st0{fill:#FFE94D;}
	.st1{fill:#FF9C92;}
	.st2{fill:#53D3E0;}
	.st3{fill:#5A9DED;}
	.st4{opacity:0.75;fill:#88D848;enable-background:new    ;}
	.st5{opacity:0.75;fill:#CC71C3;enable-background:new    ;}
	.st6{fill:#7F7F7F;}
</style>
<path class="st0" d="M80.6,361.9V218.8L20.3,323.5L80.6,361.9z"/>
<path class="st1" d="M80.6,218.8l60.3,104.7l-60.3,38.4L80.6,218.8z"/>
<path class="st2" d="M20.3,335.9l60.4,38.5V424"/>
<path class="st3" d="M140.9,335.9l-60.3,38.5V424"/>
<path class="st4" d="M80.6,289.2l-60.4,34.3l60.4,38.4V289.2z"/>
<path class="st5" d="M80.6,289.2l60.3,34.3l-60.3,38.4L80.6,289.2z"/>
<path class="st6" d="M180,285.7c0.2,7.4,5.6,10.9,11.7,10.9c3.9,0,7.8-1.6,9.4-5.2h10.2c-2.3,9.6-11,14.6-20.1,14.6  c-10.9,0-21.8-7.4-21.8-23.5c0-15.6,10.3-23.6,21.9-23.6c11,0,20.4,7.3,20.4,22.3v4.5H180L180,285.7z M180.3,277.6h20.6  c0-6-4.2-9.4-9.8-9.4C186.1,268.3,181.2,271,180.3,277.6L180.3,277.6z M246.3,305h-7.2c-8.6,0-13.9-2.7-13.9-14.8v-20.7H217v-9.8  h8.3v-10.2l10.9-3v13.2h9v9.8h-9v20.4c0,3.1,0.9,5.4,5.4,5.4h4.6L246.3,305L246.3,305z M296.7,275.8V305h-10.9v-28.3  c0-5.1-3.1-8.1-8.5-8.1c-6.5,0-10,4.5-10,11.9V305h-10.9v-62.6h11v24c2.5-4.3,6.1-7.5,13.8-7.5C291.4,258.8,296.7,265,296.7,275.8z   M317.8,285.7c0.2,7.4,5.6,10.9,11.7,10.9c3.9,0,7.8-1.6,9.4-5.2h10.2c-2.3,9.6-11,14.6-20.1,14.6c-10.9,0-21.8-7.4-21.8-23.5  c0-15.6,10.3-23.6,21.9-23.6c11,0,20.4,7.3,20.4,22.3v4.5L317.8,285.7L317.8,285.7z M318.1,277.6h20.6c0-6-4.2-9.4-9.8-9.4  C323.9,268.3,319.1,271,318.1,277.6L318.1,277.6z M386.2,269.8h-2.9c-7.6,0-11.8,4.2-11.8,13.1V305h-10.9v-45.3h10.9v6.7  c2.3-5,6.5-7.2,11.8-7.2h3L386.2,269.8L386.2,269.8z M402,285.7c0.2,7.4,5.6,10.9,11.7,10.9c3.9,0,7.8-1.6,9.4-5.2h10.2  c-2.3,9.6-11,14.6-20.1,14.6c-10.9,0-21.8-7.4-21.8-23.5c0-15.6,10.3-23.6,21.9-23.6c11,0,20.4,7.3,20.4,22.3v4.5L402,285.7  L402,285.7z M402.3,277.6h20.6c0-6-4.2-9.4-9.8-9.4C408.1,268.3,403.2,271,402.3,277.6z M483.8,305h-10.7v-6.5  c-2.7,4.2-6.4,6.9-12.6,6.9c-9.5,0-16.3-6.1-16.3-17.7v-28.1h10.9v27.4c0,6.1,3.2,8.8,7.9,8.8c5.1,0,9.8-3.8,9.8-14.2v-22h10.9  L483.8,305L483.8,305z M562.6,274.5v30.6h-10.9v-28.5c0-5.4-2.5-7.9-7.2-7.9c-5.2,0-8.7,3.1-8.7,10.9v25.5h-10.9v-28.5  c0-5.4-2.8-7.9-7.3-7.9c-5.1,0-8.7,3.2-8.7,10.8v25.6h-10.9v-45.4h10.8v6.7c1.4-3.6,5-7.5,11.9-7.5c6.1,0,10.5,2.8,12.7,7.5  c1.7-3.2,5.2-7.5,13.4-7.5C556.4,258.8,562.6,264.7,562.6,274.5L562.6,274.5z M189.5,337.1c-3.9,0-4.6,2-4.6,4.6v3h8.3v9.8h-8.3  v35.5H174v-35.5h-6.8v-9.8h6.8v-2.4c0-12.2,5.4-14.8,13.8-14.8h6.6v9.7L189.5,337.1L189.5,337.1z M244.4,367.4  c0,14.8-9.3,23.6-22.6,23.6c-13.2,0-22.5-8.8-22.5-23.6c0-14.7,9.3-23.5,22.5-23.5C235.1,343.8,244.4,352.6,244.4,367.4z   M210.5,367.4c0,9.1,4.9,13.5,11.5,13.5c7.1,0,11.2-5,11.2-13.5c0-9-4.9-13.4-11.5-13.4C214.6,354,210.5,358.9,210.5,367.4z   M294.5,390h-10.6v-6.5c-2.7,4.2-6.4,6.9-12.6,6.9c-9.5,0-16.3-6.1-16.3-17.7v-28.1h10.9v27.4c0,6.1,3.2,8.8,7.9,8.8  c5.1,0,9.8-3.8,9.8-14.2v-22h10.9L294.5,390L294.5,390z M348.9,360.7V390h-10.9v-28.3c0-5.1-3.1-8.1-8.5-8.1c-6.5,0-10,4.5-10,11.9  v24.5h-10.9v-45.2h10.9v6.6c2.5-4.2,6.3-7.4,13.8-7.4C343.6,343.8,348.9,350,348.9,360.7L348.9,360.7z M405,390h-10.8v-6.9  c-2.4,5.2-8.1,7.9-14.4,7.9c-11.1,0-20.4-7.8-20.4-23.7c0-15.7,9.3-23.4,20.4-23.4c5.9,0,11.5,2.4,14.2,6.8v-23.3h10.9L405,390  L405,390z M394.3,367.3c0-9.4-6-13.8-11.9-13.8c-6.4,0-11.8,4.5-11.8,13.8c0,9.1,5.4,13.7,11.8,13.7  C388.3,381,394.3,376.6,394.3,367.3z M455.5,359.6v30.5h-10.7v-6.6c-3.5,5.8-9.4,7.6-14.2,7.6c-7.2,0-14.6-3.9-14.6-13.5  c0-11.3,10.3-13.3,14.5-13.9l9.4-1.3c2-0.2,5.4-1.2,5.4-4.9c0-3.6-3.2-5-7.4-5c-6.1,0-9,2.8-9.5,6.7h-10.5  c1.2-10.5,10.2-15.3,20.5-15.3C449,343.8,455.5,348.9,455.5,359.6L455.5,359.6z M444.9,371v-2.4c-1.4,0.6-2.9,0.9-5.4,1.3l-5.4,0.7  c-2.8,0.3-7.3,1.6-7.3,6.1c0,3.5,2.7,5.2,6.6,5.2C439.8,381.9,444.9,377.3,444.9,371z M492.4,390h-7.2c-8.6,0-13.9-2.7-13.9-14.8  v-20.7H463v-9.8h8.3v-10.2l10.9-3v13.2h9v9.8h-9v20.4c0,3.1,0.9,5.4,5.4,5.4h4.6L492.4,390L492.4,390z M501.9,326.2h11.6v12.4h-11.6  V326.2z M502.2,390h10.9v-45.3h-10.9V390L502.2,390z M568.9,367.4c0,14.8-9.3,23.6-22.6,23.6c-13.2,0-22.5-8.8-22.5-23.6  c0-14.7,9.3-23.5,22.5-23.5C559.7,343.8,568.9,352.6,568.9,367.4L568.9,367.4z M535.1,367.4c0,9.1,4.9,13.5,11.5,13.5  c7.1,0,11.2-5,11.2-13.5c0-9-4.9-13.4-11.5-13.4C539.2,354,535.1,358.9,535.1,367.4z M620.2,360.7V390h-10.9v-28.3  c0-5.1-3.1-8.1-8.5-8.1c-6.5,0-10,4.5-10,11.9v24.5h-10.9v-45.2h10.9v6.6c2.5-4.2,6.3-7.4,13.8-7.4  C614.9,343.8,620.3,350,620.2,360.7L620.2,360.7z"/>
</svg>
