<svg width="393" height="188" viewBox="0 0 393 188" fill="none" xmlns="http://www.w3.org/2000/svg">
<path d="M22.51 21.2876V19.4768H20.662V13.9601H18.793V11.3492H20.662V7.6644H23.14V11.3492H28.768V13.9601H23.14V18.6767H28.159V16.8448H30.658V19.4768H28.768V21.2876H22.51ZM19.7363 51.3676V37.7444H22.2143V43.2611H23.4533V41.4292H27.8213V43.2611H29.7113V51.3676H27.2123V44.0401H24.0833V45.851H22.2143V51.3676H19.7363ZM21.6053 81.4476V79.6368H19.7363V73.3411H21.6053V71.5092H27.8213V73.3411H29.7113V75.931H27.2123V74.1201H22.2143V75.1519H25.9733V77.7839H22.2143V78.8367H27.2123V76.9838H29.7113V79.6158H27.8213V81.4476H21.6053Z" fill="black"/>
<path d="M56.3506 21.2876V13.1811H58.2196V11.3492H64.4356V13.1811H66.3256V15.7709H63.8266V13.9601H58.8286V21.2876H56.3506ZM58.2196 51.3676V49.5568H56.3506V43.2611H58.2196V41.4292H64.4356V43.2611H66.3256V45.8509H63.8266V44.0401H58.8286V45.0719H62.5876V47.7039H58.8286V48.7567H63.8266V46.9037H66.3256V49.5357H64.4356V51.3676H58.2196ZM58.2196 81.4476V79.6368H56.3506V73.341H58.2196V71.5092H63.8476V67.8244H66.3466V79.6368H64.4356V81.4476H58.2196ZM58.8286 78.8367H63.8266V74.1201H58.8286V78.8367Z" fill="black"/>
<path d="M94.0834 24.9724V23.1405H92.2144V20.5296H94.6924V22.3615H99.7114V19.4768H94.0834V17.6239H92.2144V13.1811H94.0834V11.3492H100.32V13.1811H102.189V23.1405H100.32V24.9724H94.0834ZM94.6924 16.8448H99.7114V13.9601H94.6924V16.8448ZM94.0834 51.3676V49.5568H92.2144V41.4292H94.6924V48.7567H99.6904V41.4292H102.189V49.5568H100.299V51.3676H94.0834ZM95.957 81.4476V71.5092H98.435V81.4476H95.957ZM95.957 70.4564V67.8244H98.435V70.4564H95.957ZM95.957 111.528V97.9044H98.435V111.528H95.957ZM94.0834 141.608V139.797H92.2144V133.501H94.0834V131.669H99.7114V127.984H102.21V139.797H100.299V141.608H94.0834ZM94.6924 138.997H99.6904V134.28H94.6924V138.997Z" fill="black"/>
<g opacity="0.5">
<path d="M22.51 21.2876V19.4768H20.662V13.9601H18.793V11.3492H20.662V7.6644H23.14V11.3492H28.768V13.9601H23.14V18.6767H28.159V16.8448H30.658V19.4768H28.768V21.2876H22.51ZM19.7363 51.3676V37.7444H22.2143V43.2611H23.4533V41.4292H27.8213V43.2611H29.7113V51.3676H27.2123V44.0401H24.0833V45.851H22.2143V51.3676H19.7363ZM21.6053 81.4476V79.6368H19.7363V73.3411H21.6053V71.5092H27.8213V73.3411H29.7113V75.931H27.2123V74.1201H22.2143V75.1519H25.9733V77.7839H22.2143V78.8367H27.2123V76.9838H29.7113V79.6158H27.8213V81.4476H21.6053Z" fill="#F7392F"/>
<path d="M56.3501 21.2876V13.1811H58.2191V11.3492H64.4351V13.1811H66.3251V15.771H63.8261V13.9602H58.8281V21.2876H56.3501ZM58.2191 51.3676V49.5568H56.3501V43.2611H58.2191V41.4292H64.4351V43.2611H66.3251V45.851H63.8261V44.0402H58.8281V45.0719H62.5871V47.7039H58.8281V48.7567H63.8261V46.9038H66.3251V49.5358H64.4351V51.3676H58.2191ZM58.2191 81.4476V79.6368H56.3501V73.3411H58.2191V71.5092H63.8471V67.8244H66.3461V79.6368H64.4351V81.4476H58.2191ZM58.8281 78.8367H63.8261V74.1202H58.8281V78.8367Z" fill="#F7392F"/>
<path d="M94.0829 24.9724V23.1406H92.2139V20.5296H94.6919V22.3615H99.7109V19.4768H94.0829V17.6239H92.2139V13.1811H94.0829V11.3492H100.32V13.1811H102.189V23.1406H100.32V24.9724H94.0829ZM94.6919 16.8448H99.7109V13.9602H94.6919V16.8448ZM94.0829 51.3676V49.5568H92.2139V41.4292H94.6919V48.7567H99.6899V41.4292H102.189V49.5568H100.299V51.3676H94.0829ZM95.9565 81.4476V71.5092H98.4345V81.4476H95.9565ZM95.9565 70.4564V67.8244H98.4345V70.4564H95.9565ZM95.9565 111.528V97.9044H98.4345V111.528H95.9565ZM94.0829 141.608V139.797H92.2139V133.501H94.0829V131.669H99.7109V127.984H102.21V139.797H100.299V141.608H94.0829ZM94.6919 138.997H99.6899V134.28H94.6919V138.997Z" fill="#F7392F"/>
<g filter="url(#filter0_f_201_18)">
<path d="M22.51 21.2876V19.4768H20.662V13.9601H18.793V11.3492H20.662V7.6644H23.14V11.3492H28.768V13.9601H23.14V18.6767H28.159V16.8448H30.658V19.4768H28.768V21.2876H22.51ZM19.7363 51.3676V37.7444H22.2143V43.2611H23.4533V41.4292H27.8213V43.2611H29.7113V51.3676H27.2123V44.0401H24.0833V45.851H22.2143V51.3676H19.7363ZM21.6053 81.4476V79.6368H19.7363V73.3411H21.6053V71.5092H27.8213V73.3411H29.7113V75.931H27.2123V74.1201H22.2143V75.1519H25.9733V77.7839H22.2143V78.8367H27.2123V76.9838H29.7113V79.6158H27.8213V81.4476H21.6053Z" fill="#F7392F"/>
<path d="M56.3501 21.2876V13.1811H58.2191V11.3492H64.4351V13.1811H66.3251V15.771H63.8261V13.9602H58.8281V21.2876H56.3501ZM58.2191 51.3676V49.5568H56.3501V43.2611H58.2191V41.4292H64.4351V43.2611H66.3251V45.851H63.8261V44.0402H58.8281V45.0719H62.5871V47.7039H58.8281V48.7567H63.8261V46.9038H66.3251V49.5358H64.4351V51.3676H58.2191ZM58.2191 81.4476V79.6368H56.3501V73.3411H58.2191V71.5092H63.8471V67.8244H66.3461V79.6368H64.4351V81.4476H58.2191ZM58.8281 78.8367H63.8261V74.1202H58.8281V78.8367Z" fill="#F7392F"/>
<path d="M94.0829 24.9724V23.1406H92.2139V20.5296H94.6919V22.3615H99.7109V19.4768H94.0829V17.6239H92.2139V13.1811H94.0829V11.3492H100.32V13.1811H102.189V23.1406H100.32V24.9724H94.0829ZM94.6919 16.8448H99.7109V13.9602H94.6919V16.8448ZM94.0829 51.3676V49.5568H92.2139V41.4292H94.6919V48.7567H99.6899V41.4292H102.189V49.5568H100.299V51.3676H94.0829ZM95.9565 81.4476V71.5092H98.4345V81.4476H95.9565ZM95.9565 70.4564V67.8244H98.4345V70.4564H95.9565ZM95.9565 111.528V97.9044H98.4345V111.528H95.9565ZM94.0829 141.608V139.797H92.2139V133.501H94.0829V131.669H99.7109V127.984H102.21V139.797H100.299V141.608H94.0829ZM94.6919 138.997H99.6899V134.28H94.6919V138.997Z" fill="#F7392F"/>
</g>
</g>
<defs>
<filter id="filter0_f_201_18" x="14.793" y="3.6644" width="91.417" height="141.943" filterUnits="userSpaceOnUse" color-interpolation-filters="sRGB">
<feFlood flood-opacity="0" result="BackgroundImageFix"/>
<feBlend mode="normal" in="SourceGraphic" in2="BackgroundImageFix" result="shape"/>
<feGaussianBlur stdDeviation="2" result="effect1_foregroundBlur_201_18"/>
</filter>
</defs>
</svg>
